<?xml version="1.0" encoding="UTF-8"?> <svg xmlns="http://www.w3.org/2000/svg" width="159" height="24" viewBox="0 0 159 24" fill="none"><path d="M11.6665 2.92705C11.9658 2.00574 13.2693 2.00574 13.5686 2.92705L15.3716 8.4762C15.5055 8.88822 15.8895 9.16718 16.3227 9.16718H22.1574C23.1261 9.16718 23.5289 10.4068 22.7452 10.9762L18.0248 14.4058C17.6743 14.6604 17.5277 15.1118 17.6615 15.5238L19.4646 21.0729C19.7639 21.9943 18.7094 22.7604 17.9257 22.191L13.2053 18.7614C12.8548 18.5068 12.3802 18.5068 12.0298 18.7614L7.30937 22.191C6.52566 22.7604 5.47118 21.9943 5.77053 21.0729L7.57356 15.5238C7.70743 15.1118 7.56077 14.6604 7.21029 14.4058L2.4899 10.9762C1.70618 10.4068 2.10896 9.16718 3.07768 9.16718H8.9124C9.34563 9.16718 9.72959 8.88822 9.86346 8.4762L11.6665 2.92705Z" fill="#FFC6AB"></path><path d="M45.29 2.92705C45.5894 2.00574 46.8928 2.00574 47.1921 2.92705L48.9952 8.4762C49.129 8.88822 49.513 9.16718 49.9462 9.16718H55.7809C56.7497 9.16718 57.1524 10.4068 56.3687 10.9762L51.6483 14.4058C51.2979 14.6604 51.1512 15.1118 51.2851 15.5238L53.0881 21.0729C53.3874 21.9943 52.333 22.7604 51.5493 22.191L46.8289 18.7614C46.4784 18.5068 46.0038 18.5068 45.6533 18.7614L40.9329 22.191C40.1492 22.7604 39.0947 21.9943 39.3941 21.0729L41.1971 15.5238C41.331 15.1118 41.1843 14.6604 40.8338 14.4058L36.1134 10.9762C35.3297 10.4068 35.7325 9.16718 36.7012 9.16718H42.5359C42.9692 9.16718 43.3531 8.88822 43.487 8.4762L45.29 2.92705Z" fill="#FFC6AB"></path><path d="M111.624 2.92705C111.923 2.00574 113.227 2.00574 113.526 2.92705L115.329 8.4762C115.463 8.88822 115.847 9.16718 116.28 9.16718H122.115C123.084 9.16718 123.486 10.4068 122.703 10.9762L117.982 14.4058C117.632 14.6604 117.485 15.1118 117.619 15.5238L119.422 21.0729C119.721 21.9943 118.667 22.7604 117.883 22.191L113.163 18.7614C112.812 18.5068 112.338 18.5068 111.987 18.7614L107.267 22.191C106.483 22.7604 105.429 21.9943 105.728 21.0729L107.531 15.5238C107.665 15.1118 107.518 14.6604 107.168 14.4058L102.447 10.9762C101.664 10.4068 102.066 9.16718 103.035 9.16718H108.87C109.303 9.16718 109.687 8.88822 109.821 8.4762L111.624 2.92705Z" fill="#FFC6AB"></path><path d="M78.457 2.92705C78.7564 2.00574 80.0598 2.00574 80.3591 2.92705L82.1622 8.4762C82.296 8.88822 82.68 9.16718 83.1132 9.16718H88.9479C89.9167 9.16718 90.3194 10.4068 89.5357 10.9762L84.8153 14.4058C84.4648 14.6604 84.3182 15.1118 84.4521 15.5238L86.2551 21.0729C86.5544 21.9943 85.5 22.7604 84.7162 22.191L79.9959 18.7614C79.6454 18.5068 79.1708 18.5068 78.8203 18.7614L74.0999 22.191C73.3162 22.7604 72.2617 21.9943 72.5611 21.0729L74.3641 15.5238C74.498 15.1118 74.3513 14.6604 74.0008 14.4058L69.2804 10.9762C68.4967 10.4068 68.8995 9.16718 69.8682 9.16718H75.7029C76.1362 9.16718 76.5201 8.88822 76.654 8.4762L78.457 2.92705Z" fill="#FFC6AB"></path><path d="M144.791 2.92705C145.091 2.00574 146.394 2.00574 146.694 2.92705L148.497 8.4762C148.631 8.88822 149.014 9.16718 149.448 9.16718H155.282C156.251 9.16718 156.654 10.4068 155.87 10.9762L151.15 14.4058C150.799 14.6604 150.653 15.1118 150.787 15.5238L152.59 21.0729C152.889 21.9943 151.834 22.7604 151.051 22.191L146.33 18.7614C145.98 18.5068 145.505 18.5068 145.155 18.7614L140.434 22.191C139.651 22.7604 138.596 21.9943 138.896 21.0729L140.699 15.5238C140.832 15.1118 140.686 14.6604 140.335 14.4058L135.615 10.9762C134.831 10.4068 135.234 9.16718 136.203 9.16718H142.037C142.471 9.16718 142.855 8.88822 142.988 8.4762L144.791 2.92705Z" fill="#FFC6AB"></path></svg> 